<?xml version="1.0" standalone="no"?>
<!DOCTYPE svg PUBLIC "-//W3C//DTD SVG 20010904//EN"
 "http://www.w3.org/TR/2001/REC-SVG-20010904/DTD/svg10.dtd">
<svg version="1.0" xmlns="http://www.w3.org/2000/svg"
 width="500.000000pt" height="500.000000pt" viewBox="0 0 500.000000 500.000000"
 preserveAspectRatio="xMidYMid meet">

<g transform="translate(0.000000,500.000000) scale(0.100000,-0.100000)"
fill="#000000" stroke="none">
<path d="M2265 4744 c-117 -13 -281 -38 -360 -55 -1122 -247 -1905 -1137
-1905 -2164 0 -1027 783 -1917 1905 -2164 203 -45 319 -55 590 -55 271 0 387
10 590 55 1122 247 1905 1137 1905 2164 0 1021 -769 1902 -1885 2160 -175 40
-328 57 -565 60 -129 2 -253 1 -275 -1z m575 -128 c540 -74 1021 -298 1384
-646 650 -622 824 -1511 447 -2284 -332 -682 -1025 -1149 -1866 -1257 -129
-17 -481 -17 -610 0 -558 72 -1049 296 -1419 651 -650 622 -824 1511 -447
2284 303 623 924 1079 1666 1225 87 17 167 28 340 45 76 8 400 -4 505 -18z"/>
<path d="M2280 4524 c-333 -39 -591 -108 -842 -227 -97 -46 -287 -153 -311
-176 -4 -4 12 -43 36 -87 24 -43 65 -118 91 -167 l47 -87 42 25 c145 89 408
204 582 254 87 25 249 57 334 66 l63 7 -6 -113 c-3 -63 -8 -328 -11 -589 -3
-261 -8 -555 -11 -652 l-7 -178 -143 0 -144 0 0 655 0 656 -37 -7 c-93 -17
-247 -69 -350 -120 l-113 -54 0 -1010 0 -1010 -271 0 -270 0 -41 88 c-54 117
-112 295 -137 417 -106 535 21 1094 322 1411 l64 68 -91 153 c-50 84 -96 153
-102 153 -19 0 -201 -177 -283 -275 -221 -265 -362 -570 -423 -915 -17 -100
-17 -450 0 -550 59 -331 195 -635 397 -888 l58 -72 388 0 389 0 2 -277 3 -276
145 -49 c142 -49 313 -98 338 -98 9 0 12 77 12 350 l0 350 75 0 75 0 0 205 0
205 -75 0 -75 0 0 245 0 245 143 0 142 0 -2 -77 c-9 -301 -24 -1566 -18 -1571
9 -9 471 -9 480 0 6 6 -16 1095 -31 1481 l-6 167 136 0 136 0 0 -800 c0 -633
3 -800 13 -800 24 0 195 49 337 98 l145 49 3 1491 2 1492 -112 54 c-104 51
-258 103 -350 120 l-38 7 0 -656 0 -655 -140 0 -140 0 -1 68 c0 37 -8 380 -18
762 -10 382 -17 697 -15 699 7 8 200 -20 314 -45 181 -41 341 -98 527 -189 94
-47 175 -85 180 -85 11 0 193 271 193 288 0 19 -139 104 -295 182 -217 107
-466 185 -720 225 -95 16 -503 29 -585 19z"/>
<path d="M4015 3827 c-94 -24 -166 -68 -255 -157 -133 -131 -197 -273 -188
-414 7 -96 46 -207 239 -673 189 -457 194 -472 210 -588 22 -166 -11 -330 -91
-451 -52 -80 -158 -179 -244 -229 l-69 -39 6 -215 c4 -117 8 -216 11 -218 9
-9 204 99 291 162 105 75 232 197 299 286 178 236 277 549 246 777 -21 160
-64 258 -230 527 -192 311 -270 491 -278 648 -6 109 11 159 73 216 61 56 131
76 267 75 l107 0 -27 36 c-15 20 -61 82 -102 138 -41 55 -85 105 -97 111 -37
17 -115 21 -168 8z"/>
</g>
</svg>
